<svg xmlns="http://www.w3.org/2000/svg" width="174" height="36.401"><defs><style>.cls-1{fill:#fff}</style></defs><g id="Group_52" data-name="Group 52" transform="translate(-248.691 -213.15)"><g id="Group_50" data-name="Group 50" transform="translate(248.692 213.151)"><g id="Group_31" data-name="Group 31" transform="translate(137.933 17.486)"><g id="Group_30" data-name="Group 30"><path id="Path_30" d="M1429.739 371.518l5.179-5.178a.86.86 0 0 0 .158-.934.863.863 0 0 0-1.408-.266l-5.137 5.153-5.228-5.227a.859.859 0 0 0-.61-.256.875.875 0 0 0-.8.536.848.848 0 0 0 .194.938l5.217 5.234-5.141 5.14a.851.851 0 0 0-.2.941.876.876 0 0 0 .8.535.861.861 0 0 0 .609-.257l5.154-5.153 5.213 4.793a.859.859 0 0 0 .61.258.869.869 0 0 0 .619-1.477z" class="cls-1" data-name="Path 30" transform="translate(-1421.431 -364.413)"/><path id="Path_31" d="M1419.774 375.563a1.281 1.281 0 0 1-1.165-.778 1.243 1.243 0 0 1 .282-1.375l4.86-4.86-4.938-4.955a1.235 1.235 0 0 1-.28-1.366 1.281 1.281 0 0 1 1.166-.783 1.257 1.257 0 0 1 .893.373l4.945 4.944 4.854-4.869a1.262 1.262 0 0 1 2.057.384 1.251 1.251 0 0 1-.227 1.362l-4.9 4.9 4.928 4.5a1.265 1.265 0 0 1-.889 2.166 1.254 1.254 0 0 1-.894-.376l-4.918-4.521-4.882 4.882a1.257 1.257 0 0 1-.892.372zm-.075-13.324a.474.474 0 0 0-.428.292.452.452 0 0 0 .107.5l5.5 5.515-5.42 5.42a.458.458 0 0 0-.109.512.477.477 0 0 0 .753.147l5.425-5.424 5.5 5.053a.466.466 0 0 0 .77-.135.477.477 0 0 0-.106-.525l-5.515-5.035 5.472-5.471a.459.459 0 0 0 .074-.5.478.478 0 0 0-.761-.142l-5.418 5.435-5.511-5.51a.461.461 0 0 0-.332-.133z" class="cls-1" data-name="Path 31" transform="translate(-1418.436 -361.445)"/></g></g><g id="Group_41" data-name="Group 41" transform="translate(134.044)"><g id="Group_40" data-name="Group 40"><g id="Group_32" data-name="Group 32" transform="translate(26.659 17.697)"><path id="Path_32" d="M1611.54 366.66a3.371 3.371 0 1 0 3.288-3.431 3.364 3.364 0 0 0-3.288 3.431z" class="cls-1" data-name="Path 32" transform="translate(-1611.539 -363.228)"/></g><g id="Group_33" data-name="Group 33" transform="translate(12.881 1.594)"><path id="Path_33" d="M1494.695 230.1a3.372 3.372 0 1 0 3.289-3.43 3.362 3.362 0 0 0-3.289 3.43z" class="cls-1" data-name="Path 33" transform="translate(-1494.694 -226.667)"/></g><g id="Group_34" data-name="Group 34" transform="translate(4.726)"><path id="Path_34" d="M1425.539 215.808a2.612 2.612 0 1 0 2.549-2.656 2.605 2.605 0 0 0-2.549 2.656z" class="cls-1" data-name="Path 34" transform="translate(-1425.538 -213.151)"/></g><g id="Group_35" data-name="Group 35" transform="translate(26.608 27.231)"><path id="Path_35" d="M1611.106 446.516a2.391 2.391 0 1 0 2.331-2.432 2.384 2.384 0 0 0-2.331 2.432z" class="cls-1" data-name="Path 35" transform="translate(-1611.105 -444.083)"/></g><g id="Group_36" data-name="Group 36" transform="translate(21.335 31.563)"><path id="Path_36" d="M1566.394 482.26a1.41 1.41 0 1 0 1.374-1.436 1.4 1.4 0 0 0-1.374 1.436z" class="cls-1" data-name="Path 36" transform="translate(-1566.394 -480.823)"/></g><g id="Group_37" data-name="Group 37" transform="translate(.179 4.989)"><path id="Path_37" d="M1386.973 257.036a1.551 1.551 0 1 0 1.513-1.579 1.546 1.546 0 0 0-1.513 1.579z" class="cls-1" data-name="Path 37" transform="translate(-1386.972 -255.457)"/></g><g id="Group_38" data-name="Group 38" transform="translate(0 11.405)"><path id="Path_38" d="M1385.459 311.105a1.213 1.213 0 1 0 1.181-1.232 1.208 1.208 0 0 0-1.181 1.232z" class="cls-1" data-name="Path 38" transform="translate(-1385.459 -309.872)"/></g><g id="Group_39" data-name="Group 39" transform="translate(20.497 7.655)"><path id="Path_39" d="M1559.288 282.361a4.216 4.216 0 1 0 4.111-4.289 4.208 4.208 0 0 0-4.111 4.289z" class="cls-1" data-name="Path 39" transform="translate(-1559.287 -278.07)"/></g></g></g><g id="Group_49" data-name="Group 49" transform="translate(0 17.522)"><g id="Group_42" data-name="Group 42"><path id="Path_40" d="M262.3 365.116h-9.128a1.09 1.09 0 0 0-1.1 1.108v11.057a1.089 1.089 0 0 0 1.1 1.107h9.145a3.2 3.2 0 0 0 3.094-3.058v-7.138a3.26 3.26 0 0 0-3.111-3.076zm.017 11.538c-1.55 0-3.067 0-4.583.008h-.4c-1.167 0-2.337.006-3.524.007v-9.836h8.49a1.484 1.484 0 0 1 1.366 1.375v7.121a1.427 1.427 0 0 1-1.347 1.325z" class="cls-1" data-name="Path 40" transform="translate(-251.679 -364.719)"/><path id="Path_41" d="M259.332 375.816h-9.145a1.483 1.483 0 0 1-1.495-1.5v-11.06a1.484 1.484 0 0 1 1.495-1.5h9.128a3.678 3.678 0 0 1 3.511 3.473v7.138a3.611 3.611 0 0 1-3.494 3.449zm-9.145-13.272a.689.689 0 0 0-.7.711v11.057a.688.688 0 0 0 .7.71h9.145a2.784 2.784 0 0 0 2.7-2.661v-7.138a2.879 2.879 0 0 0-2.712-2.679zm.233 11.555V363.47h8.894a1.888 1.888 0 0 1 1.766 1.771v7.121a1.827 1.827 0 0 1-1.748 1.72c-1.55 0-3.066 0-4.582.009h-.4c-1.168 0-2.338.006-3.525.007zm.8-9.836v9.037l3.124-.007h.4c1.517 0 3.034-.009 4.584-.009a1.031 1.031 0 0 0 .95-.927v-7.121a1.085 1.085 0 0 0-.967-.978z" class="cls-1" data-name="Path 41" transform="translate(-248.692 -361.751)"/></g><g id="Group_43" data-name="Group 43" transform="translate(20.767)"><path id="Path_42" d="M438.311 365.116h-6.819a3.206 3.206 0 0 0-3.3 3.093v9.4a.844.844 0 0 0 .855.85.863.863 0 0 0 .872-.85v-4.592h9.966v4.592a.864.864 0 0 0 1.729 0v-9.4a3.216 3.216 0 0 0-3.303-3.093zm1.572 3.093v3.139h-9.966v-3.139a1.5 1.5 0 0 1 1.591-1.375h6.784a1.5 1.5 0 0 1 1.592 1.375z" class="cls-1" data-name="Path 42" transform="translate(-427.792 -364.719)"/><path id="Path_43" d="M437.77 375.886a1.261 1.261 0 0 1-1.271-1.247v-4.2h-9.167v4.2a1.261 1.261 0 0 1-1.272 1.247 1.237 1.237 0 0 1-1.254-1.247v-9.4a3.6 3.6 0 0 1 3.7-3.49h6.819a3.613 3.613 0 0 1 3.7 3.49v9.4a1.253 1.253 0 0 1-1.255 1.247zm-11.237-6.236H437.3v4.989a.464.464 0 0 0 .473.454.456.456 0 0 0 .457-.454v-9.4a2.817 2.817 0 0 0-2.9-2.7h-6.819a2.808 2.808 0 0 0-2.9 2.7v9.4a.445.445 0 0 0 .455.454.464.464 0 0 0 .473-.454zm10.764-.873h-10.764v-3.535a1.9 1.9 0 0 1 1.99-1.771h6.784a1.9 1.9 0 0 1 1.99 1.771zm-9.966-.793h9.169v-2.742a1.109 1.109 0 0 0-1.191-.978h-6.784a1.109 1.109 0 0 0-1.192.978z" class="cls-1" data-name="Path 43" transform="translate(-424.806 -361.751)"/></g><g id="Group_44" data-name="Group 44" transform="translate(40.394)"><path id="Path_44" d="M605.329 365.116h-9.817a.859.859 0 1 0 0 1.719h4.053c0 1.346 0 3.2-.008 5.064v1.377c0 1.688-.006 3.266-.006 4.332a.873.873 0 0 0 1.745 0v-10.773h4.035a.859.859 0 1 0 0-1.719z" class="cls-1" data-name="Path 44" transform="translate(-594.246 -364.719)"/><path id="Path_45" d="M597.435 375.886a1.246 1.246 0 0 1-1.272-1.247c0-1.066 0-2.644.006-4.333v-2.5c0-1.293 0-2.534.006-3.546h-3.653a1.256 1.256 0 1 1 0-2.512h9.817a1.256 1.256 0 1 1 0 2.512h-3.636v10.375a1.246 1.246 0 0 1-1.268 1.251zm-4.909-13.341a.463.463 0 1 0 0 .925h4.452v.4c0 1.075 0 2.477-.006 3.944v2.5c0 1.688-.006 3.266-.006 4.331a.474.474 0 0 0 .947 0V363.47h4.435a.463.463 0 1 0 0-.925z" class="cls-1" data-name="Path 45" transform="translate(-591.259 -361.751)"/></g><g id="Group_45" data-name="Group 45" transform="translate(58.551)"><path id="Path_46" d="M758.74 365.116h-6.82a3.207 3.207 0 0 0-3.3 3.093v9.4a.844.844 0 0 0 .855.85.863.863 0 0 0 .873-.85v-4.592h9.965v4.592a.864.864 0 0 0 1.728 0v-9.4a3.215 3.215 0 0 0-3.301-3.093zm1.572 3.093v3.139h-9.965v-3.139a1.5 1.5 0 0 1 1.589-1.375h6.785a1.5 1.5 0 0 1 1.592 1.375z" class="cls-1" data-name="Path 46" transform="translate(-748.221 -364.719)"/><path id="Path_47" d="M758.2 375.886a1.261 1.261 0 0 1-1.271-1.247v-4.2h-9.166v4.2a1.262 1.262 0 0 1-1.272 1.247 1.237 1.237 0 0 1-1.254-1.247v-9.4a3.6 3.6 0 0 1 3.7-3.49h6.82a3.613 3.613 0 0 1 3.7 3.49v9.4a1.253 1.253 0 0 1-1.257 1.247zm-11.236-6.236h10.763v4.989a.464.464 0 0 0 .473.454.456.456 0 0 0 .457-.454v-9.4a2.816 2.816 0 0 0-2.9-2.7h-6.82a2.808 2.808 0 0 0-2.9 2.7v9.4a.445.445 0 0 0 .456.454.465.465 0 0 0 .474-.454zm10.763-.873h-10.764v-3.535a1.9 1.9 0 0 1 1.988-1.771h6.785a1.9 1.9 0 0 1 1.99 1.771zm-9.965-.793h9.166v-2.742a1.109 1.109 0 0 0-1.191-.978h-6.785a1.108 1.108 0 0 0-1.19.978z" class="cls-1" data-name="Path 47" transform="translate(-745.235 -361.751)"/></g><g id="Group_46" data-name="Group 46" transform="translate(79.36)"><path id="Path_48" d="M935.643 370.92h-7.474c-.924 0-1.344-1.074-1.344-2.07 0-.971.409-2.016 1.31-2.016h8.232a.859.859 0 1 0 0-1.719h-8.232c-1.994 0-3.039 1.886-3.039 3.749 0 1.817.967 3.773 3.091 3.773h7.367c.941.007 1.367 1.076 1.364 2.066 0 .947-.414 1.967-1.308 1.967h-9.471a.859.859 0 0 0 0 1.717h9.453c2.106 0 3.064-1.942 3.064-3.746-.001-1.849-1.035-3.721-3.013-3.721z" class="cls-1" data-name="Path 48" transform="translate(-924.697 -364.719)"/><path id="Path_49" d="M932.605 375.816h-9.453a1.255 1.255 0 0 1 0-2.511h9.471c.663 0 .907-.939.909-1.571 0-.668-.253-1.663-.968-1.668H925.2c-2.4 0-3.49-2.161-3.49-4.17 0-2.06 1.181-4.146 3.438-4.146h8.232a1.256 1.256 0 1 1 0 2.512h-8.232c-.668 0-.91.969-.91 1.62 0 .672.252 1.673.945 1.673h7.474c2.24 0 3.411 2.071 3.411 4.118.001 1.996-1.083 4.143-3.463 4.143zm-9.453-1.717a.462.462 0 0 0 0 .924h9.453c1.831 0 2.665-1.737 2.665-3.35 0-1.652-.9-3.324-2.613-3.324h-7.474c-1.2 0-1.743-1.278-1.743-2.466 0-1.162.535-2.413 1.709-2.413h8.232a.463.463 0 1 0 0-.925h-8.232c-1.733 0-2.64 1.686-2.64 3.352 0 1.626.842 3.376 2.692 3.376h7.367c1.219.009 1.767 1.284 1.763 2.464 0 1.137-.539 2.362-1.707 2.362z" class="cls-1" data-name="Path 49" transform="translate(-921.711 -361.751)"/></g><g id="Group_47" data-name="Group 47" transform="translate(98.243)"><path id="Path_50" d="M1096.78 365.116h-10.68a.859.859 0 1 0 0 1.719h4.914c0 1.346-.007 3.2-.009 5.064-.005 2.177-.009 4.357-.009 5.708a.872.872 0 0 0 1.744 0v-10.772h4.036a.859.859 0 1 0 0-1.719z" class="cls-1" data-name="Path 50" transform="translate(-1084.834 -364.719)"/><path id="Path_51" d="M1088.886 375.886a1.246 1.246 0 0 1-1.272-1.247c0-1.352 0-3.532.009-5.709l.008-4.666h-4.514a1.256 1.256 0 1 1 0-2.512h10.677a1.256 1.256 0 1 1 0 2.512h-3.637v10.375a1.246 1.246 0 0 1-1.271 1.247zm-5.769-13.341a.463.463 0 1 0 0 .925h5.314l-.01 5.461c-.005 2.177-.009 4.357-.009 5.708a.473.473 0 0 0 .946 0V363.47h4.436a.463.463 0 1 0 0-.925z" class="cls-1" data-name="Path 51" transform="translate(-1081.848 -361.751)"/></g><g id="Group_48" data-name="Group 48" transform="translate(117.261)"><path id="Path_52" d="M1256.636 365.116h-6.819a3.207 3.207 0 0 0-3.3 3.093v9.4a.844.844 0 0 0 .855.85.863.863 0 0 0 .873-.85v-4.592h9.964v4.592a.863.863 0 0 0 .874.85.854.854 0 0 0 .855-.85v-9.4a3.216 3.216 0 0 0-3.302-3.093zm1.573 3.093v3.139h-9.964v-3.139a1.5 1.5 0 0 1 1.589-1.375h6.786a1.5 1.5 0 0 1 1.589 1.375z" class="cls-1" data-name="Path 52" transform="translate(-1246.117 -364.719)"/><path id="Path_53" d="M1256.1 375.886a1.262 1.262 0 0 1-1.273-1.247v-4.2h-9.166v4.2a1.261 1.261 0 0 1-1.272 1.247 1.238 1.238 0 0 1-1.255-1.247v-9.4a3.6 3.6 0 0 1 3.7-3.49h6.819a3.613 3.613 0 0 1 3.7 3.49v9.4a1.252 1.252 0 0 1-1.253 1.247zm-11.237-6.236h10.763v4.989a.465.465 0 0 0 .474.454.456.456 0 0 0 .456-.454v-9.4a2.817 2.817 0 0 0-2.9-2.7h-6.819a2.808 2.808 0 0 0-2.9 2.7v9.4a.445.445 0 0 0 .456.454.465.465 0 0 0 .474-.454zm10.763-.873h-10.763v-3.535a1.9 1.9 0 0 1 1.988-1.771h6.786a1.9 1.9 0 0 1 1.988 1.771zm-9.964-.793h9.166v-2.742a1.108 1.108 0 0 0-1.19-.978h-6.786a1.108 1.108 0 0 0-1.19.978z" class="cls-1" data-name="Path 53" transform="translate(-1243.131 -361.751)"/></g></g></g><g id="Group_51" data-name="Group 51" transform="translate(416.34 243.242)"><path id="Path_54" d="M1670.7 470.244a3.14 3.14 0 0 1 .688-1 3.212 3.212 0 0 1 1.014-.662 3.172 3.172 0 0 1 4.143 1.66 3.042 3.042 0 0 1 .253 1.241 3.11 3.11 0 0 1-.253 1.263 3.213 3.213 0 0 1-.684 1.006 3.077 3.077 0 0 1-1.006.662 3.3 3.3 0 0 1-2.454 0 3.12 3.12 0 0 1-1.014-.662 3.18 3.18 0 0 1-.688-1.006 3.106 3.106 0 0 1-.253-1.263 3.038 3.038 0 0 1 .254-1.239zm.519 2.319a2.639 2.639 0 0 0 .549.857 2.533 2.533 0 0 0 .828.571 2.575 2.575 0 0 0 1.034.207 2.525 2.525 0 0 0 1.022-.207 2.554 2.554 0 0 0 .824-.571 2.638 2.638 0 0 0 .549-.857 2.868 2.868 0 0 0 .2-1.077 2.793 2.793 0 0 0-.2-1.056 2.557 2.557 0 0 0-1.373-1.414 2.522 2.522 0 0 0-1.022-.207 2.579 2.579 0 0 0-1.862.772 2.616 2.616 0 0 0-.549.849 2.793 2.793 0 0 0-.2 1.056 2.868 2.868 0 0 0 .196 1.077zm2.606-2.91a1.507 1.507 0 0 1 .976.262.968.968 0 0 1 .317.794.9.9 0 0 1-.279.73 1.252 1.252 0 0 1-.693.275l1.056 1.63h-.616l-1.005-1.588h-.608v1.588h-.574v-3.691zm-.253 1.638c.129 0 .252 0 .367-.012a.914.914 0 0 0 .308-.071.483.483 0 0 0 .215-.182.617.617 0 0 0 .08-.341.534.534 0 0 0-.072-.3.476.476 0 0 0-.185-.168.8.8 0 0 0-.262-.08 1.972 1.972 0 0 0-.291-.021h-.76v1.173z" class="cls-1" data-name="Path 54" transform="translate(-1670.442 -468.344)"/></g></g></svg>